<?xml version="1.0" ?><svg viewBox="0 0 64 64" xmlns="http://www.w3.org/2000/svg"><g id="a"/><g id="b"/><g id="c"/><g id="d"/><g id="e"/><g id="f"/><g id="g"/><g id="h"/><g id="i"/><g id="j"><path d="M9.01,14.77c-3.97,.01-4.01,2.33-4.01,3.8v19.03L25.63,20.59s-5.6-5.86-16.62-5.83Z" fill="#feccc7" fill-rule="evenodd"/><path d="M58.98,37.61h.02c0-1.88-.01-4.85-.42-5.87-.95-2.37-3.15-6.51-7.7-9.52l-15.06-3.62c-14.16,.72-26.8,10.45-29.64,14.16-.99,1.29-1.19,3.45-1.19,4.83H58.98Z" fill="#ffded4" fill-rule="evenodd"/><path d="M34.9,31.83s6.41-2.77,13.33,0l1.03,25.89H12.98l4.67-24.13,17.24-1.76Z" fill="#62d9fa" fill-rule="evenodd"/><path d="M59,39.03c0-2.99,0-7.2-6.36-7.2,0,0-2.68,.02-4.41,0-2.81-.02-6.35,.62-10.8,2.28-7.06,2.91-14.73,10.16-2.22,13.41,7.35,1.91,9.93,5.09,10.81,7.4,.56,1.46,1.67,2.8,3.25,2.8l7.32-7.69,2.42-9.95v-1.05Z" fill="#9af6d3" fill-rule="evenodd"/><path d="M6.73,57.73c-.96,0-1.73-.77-1.73-1.73v-18.4c0-1.16,.39-5.72,5.64-5.76h24.26s-10.22,3.57-14.63,11.66c-3.97,7.28,2.24,14.23-7.28,14.23H6.73Z" fill="#9af6d3" fill-rule="evenodd"/><path d="M59,47.51v-7.43h0c-.81,.06-1.58,.37-2.21,.88l-2.12,1.7c-.65,.53-1,1.35-.92,2.18l.25,2.7,5.01-.02Z" fill="#fcbfad" fill-rule="evenodd"/><path d="M56.31,46.94c-.58-.02-1.15,.09-1.69,.32l-2.5,1.06c-.77,.33-1.33,1.02-1.48,1.85l-1.38,7.55h8.01c.96,0,1.73-.77,1.73-1.73v-8.48l-1.84-.45c-.28-.07-.57-.11-.86-.12Z" fill="#feccba" fill-rule="evenodd"/><path d="M33.15,9.54c-1.3,0-2.35,1.05-2.35,2.35s1.05,2.35,2.35,2.35h5.4c.91,0,1.64,.74,1.64,1.65s-.73,1.64-1.64,1.65h-.76c-1.3,0-2.35,1.05-2.35,2.35s1.05,2.35,2.35,2.35h17.3c1.3,0,2.35-1.05,2.35-2.35s-1.05-2.35-2.35-2.35h-4.59c-.91,0-1.65-.74-1.65-1.65s.74-1.65,1.65-1.65h1.37c1.3,0,2.35-1.05,2.35-2.35s-1.05-2.35-2.35-2.35h-18.72Z" fill="#d1f1f4" fill-rule="evenodd"/><path d="M14.26,6.28h6.38c1.26,0,2.27,1.01,2.27,2.27s-1.01,2.27-2.27,2.27h-6.38c-1.26,0-2.27-1.01-2.27-2.27s1.01-2.27,2.27-2.27Z" fill="#d1f1f4" fill-rule="evenodd"/><path d="M13.34,38.6c-.55,0-1,.45-1,1v.65c-.33-.17-.74-.38-.74-.38-.53-.13-1.08,.2-1.21,.73-.02,.08-.03,.16-.03,.24,0,.46,.32,.86,.76,.97,0,0,.87,.12,1.26,1.43,.13,.42,.52,.71,.96,.71s.83-.29,.96-.71c.4-1.3,1.26-1.43,1.26-1.43,.44-.11,.76-.51,.76-.97,0-.08,0-.16-.03-.24-.13-.53-.68-.86-1.21-.73,0,0-.41,.21-.74,.38v-.65c0-.55-.45-1-1-1Z" fill="#6df4c0" fill-rule="evenodd"/><path d="M41.31,40.04c-.55,0-1,.45-1,1v.65c-.33-.17-.74-.38-.74-.38-.53-.13-1.08,.2-1.21,.73-.13,.53,.2,1.08,.73,1.21,0,0,.87,.12,1.26,1.43,.13,.42,.52,.71,.96,.71s.83-.29,.96-.71c.4-1.3,1.26-1.43,1.26-1.43,.53-.13,.86-.68,.73-1.21-.11-.44-.51-.76-.97-.76-.08,0-.16,0-.24,.03,0,0-.41,.21-.74,.38v-.65c0-.55-.45-1-1-1Z" fill="#6df4c0" fill-rule="evenodd"/><path d="M49.74,35.41c-.55,0-1,.45-1,1v.65c-.33-.17-.74-.38-.74-.38-.53-.13-1.08,.2-1.21,.73-.13,.53,.2,1.08,.73,1.21,0,0,.87,.12,1.26,1.43,.13,.42,.52,.71,.96,.71s.83-.29,.96-.71c.4-1.3,1.26-1.43,1.26-1.43,.53-.13,.86-.68,.73-1.21-.13-.53-.68-.86-1.21-.73,0,0-.41,.21-.74,.38v-.65c0-.55-.45-1-1-1Z" fill="#6df4c0" fill-rule="evenodd"/></g><g id="k"/><g id="l"/><g id="m"/><g id="n"/><g id="o"/><g id="p"/><g id="q"/><g id="r"/><g id="s"/><g id="t"/><g id="u"/><g id="v"/><g id="w"/><g id="x"/><g id="y"/><g id="a`"/><g id="aa"/><g id="ab"/><g id="ac"/><g id="ad"/><g id="ae"/><g id="af"/><g id="ag"/><g id="ah"/><g id="ai"/><g id="aj"/><g id="ak"/><g id="al"/><g id="am"/><g id="an"/><g id="ao"/><g id="ap"/><g id="aq"/><g id="ar"/><g id="as"/><g id="at"/><g id="au"/><g id="av"/><g id="aw"/><g id="ax"/></svg>